<?xml version="1.0" encoding="UTF-8"?>
<svg xmlns="http://www.w3.org/2000/svg" width="1100" height="680" viewBox="0 0 1100 680" font-family="Arial, sans-serif">
<defs>
  <!-- Gradientlar -->
  <linearGradient id="sky" x1="0" y1="0" x2="0" y2="1">
    <stop offset="0%" stop-color="#4fc3f7"/>
    <stop offset="100%" stop-color="#e1f5fe"/>
  </linearGradient>
  <linearGradient id="soil_dry" x1="0" y1="0" x2="0" y2="1">
    <stop offset="0%" stop-color="#d4a96a"/>
    <stop offset="100%" stop-color="#b8832e"/>
  </linearGradient>
  <linearGradient id="water_free" x1="0" y1="0" x2="0" y2="1">
    <stop offset="0%" stop-color="#81d4fa"/>
    <stop offset="100%" stop-color="#29b6f6"/>
  </linearGradient>
  <linearGradient id="clay_grad" x1="0" y1="0" x2="0" y2="1">
    <stop offset="0%" stop-color="#a1887f"/>
    <stop offset="100%" stop-color="#795548"/>
  </linearGradient>
  <linearGradient id="napor1_grad" x1="0" y1="0" x2="0" y2="1">
    <stop offset="0%" stop-color="#1976d2"/>
    <stop offset="100%" stop-color="#0d47a1"/>
  </linearGradient>
  <linearGradient id="rock_grad" x1="0" y1="0" x2="0" y2="1">
    <stop offset="0%" stop-color="#78909c"/>
    <stop offset="100%" stop-color="#546e7a"/>
  </linearGradient>
  <linearGradient id="napor2_grad" x1="0" y1="0" x2="0" y2="1">
    <stop offset="0%" stop-color="#0d47a1"/>
    <stop offset="100%" stop-color="#002171"/>
  </linearGradient>
  <linearGradient id="granite_grad" x1="0" y1="0" x2="0" y2="1">
    <stop offset="0%" stop-color="#4a4a4a"/>
    <stop offset="100%" stop-color="#212121"/>
  </linearGradient>
  <linearGradient id="sun_grad" cx="0.4" cy="0.35" r="0.6" fx="0.4" fy="0.35" gradientUnits="objectBoundingBox">
    <stop offset="0%" stop-color="#fff9c4"/>
    <stop offset="100%" stop-color="#f9a825"/>
  </linearGradient>
  <linearGradient id="grass_grad" x1="0" y1="0" x2="0" y2="1">
    <stop offset="0%" stop-color="#66bb6a"/>
    <stop offset="100%" stop-color="#388e3c"/>
  </linearGradient>
  <!-- G'ovak pattern -->
  <pattern id="porous_dry" x="0" y="0" width="18" height="14" patternUnits="userSpaceOnUse">
    <rect width="18" height="14" fill="#c8913a"/>
    <ellipse cx="5" cy="5" rx="3" ry="2.5" fill="#a06820" opacity="0.55"/>
    <ellipse cx="13" cy="9" rx="3.5" ry="2.5" fill="#8a5010" opacity="0.45"/>
    <ellipse cx="3" cy="11" rx="2" ry="1.8" fill="#b07830" opacity="0.4"/>
  </pattern>
  <pattern id="porous_wet" x="0" y="0" width="16" height="13" patternUnits="userSpaceOnUse">
    <rect width="16" height="13" fill="#1e88e5"/>
    <ellipse cx="4" cy="4" rx="2.5" ry="2" fill="#0d5da0" opacity="0.5"/>
    <ellipse cx="12" cy="8" rx="3" ry="2" fill="#094080" opacity="0.45"/>
    <ellipse cx="3" cy="10" rx="2" ry="1.5" fill="#0d5da0" opacity="0.4"/>
  </pattern>
  <pattern id="porous_deep" x="0" y="0" width="16" height="13" patternUnits="userSpaceOnUse">
    <rect width="16" height="13" fill="#0a3880"/>
    <ellipse cx="4" cy="4" rx="2.5" ry="2" fill="#061f50" opacity="0.5"/>
    <ellipse cx="12" cy="8" rx="3" ry="2" fill="#030f30" opacity="0.45"/>
    <ellipse cx="3" cy="10" rx="2" ry="1.5" fill="#061f50" opacity="0.4"/>
  </pattern>
  <pattern id="clay_pat" x="0" y="0" width="22" height="10" patternUnits="userSpaceOnUse">
    <rect width="22" height="10" fill="#8d6e63"/>
    <line x1="0" y1="3" x2="22" y2="3" stroke="#6d4c41" stroke-width="1.2"/>
    <line x1="0" y1="7" x2="22" y2="7" stroke="#6d4c41" stroke-width="0.7"/>
    <line x1="4" y1="0" x2="0" y2="4" stroke="#6d4c41" stroke-width="0.5" opacity="0.4"/>
    <line x1="14" y1="0" x2="22" y2="8" stroke="#6d4c41" stroke-width="0.5" opacity="0.4"/>
  </pattern>
  <pattern id="rock_pat" x="0" y="0" width="28" height="18" patternUnits="userSpaceOnUse">
    <rect width="28" height="18" fill="#607d8b"/>
    <polygon points="0,0 14,0 7,9" fill="#455a64" opacity="0.5"/>
    <polygon points="14,0 28,0 21,9" fill="#78909c" opacity="0.4"/>
    <polygon points="0,9 14,9 7,18" fill="#78909c" opacity="0.4"/>
    <polygon points="14,9 28,9 21,18" fill="#455a64" opacity="0.5"/>
  </pattern>
  <pattern id="granite_pat" x="0" y="0" width="32" height="22" patternUnits="userSpaceOnUse">
    <rect width="32" height="22" fill="#2c2c2c"/>
    <polygon points="0,0 16,0 8,11" fill="#444" opacity="0.5"/>
    <polygon points="16,0 32,0 24,11" fill="#1a1a1a" opacity="0.5"/>
    <polygon points="0,11 16,11 8,22" fill="#1a1a1a" opacity="0.5"/>
    <polygon points="16,11 32,11 24,22" fill="#444" opacity="0.5"/>
    <circle cx="6" cy="5" r="2.5" fill="#555" opacity="0.5"/>
    <circle cx="24" cy="15" r="2" fill="#555" opacity="0.5"/>
  </pattern>
  <!-- Strelkalar -->
  <marker id="arr_blue" markerWidth="9" markerHeight="7" refX="8" refY="3.5" orient="auto">
    <polygon points="0 0, 9 3.5, 0 7" fill="#82b1ff"/>
  </marker>
  <marker id="arr_deepblue" markerWidth="9" markerHeight="7" refX="8" refY="3.5" orient="auto">
    <polygon points="0 0, 9 3.5, 0 7" fill="#82cfff"/>
  </marker>
  <marker id="arr_down_blue" markerWidth="7" markerHeight="9" refX="3.5" refY="8" orient="auto">
    <polygon points="0 0, 7 0, 3.5 9" fill="#29b6f6"/>
  </marker>
  <marker id="arr_down_orange" markerWidth="7" markerHeight="9" refX="3.5" refY="8" orient="auto">
    <polygon points="0 0, 7 0, 3.5 9" fill="#ff7043"/>
  </marker>
  <marker id="arr_up_green" markerWidth="7" markerHeight="9" refX="3.5" refY="1" orient="auto">
    <polygon points="0 9, 7 9, 3.5 0" fill="#69f0ae"/>
  </marker>
  <!-- Soya filter -->
  <filter id="shadow" x="-10%" y="-10%" width="120%" height="120%">
    <feDropShadow dx="2" dy="2" stdDeviation="3" flood-color="#00000040"/>
  </filter>
</defs>


<!-- ===== OSMON ===== -->
<rect x="0" y="0" width="1100" height="130" fill="url(#sky)"/>

<!-- Quyosh -->
<circle cx="980" cy="58" r="44" fill="#fff176" opacity="0.5"/>
<circle cx="980" cy="58" r="32" fill="#ffee58" opacity="0.8"/>
<circle cx="980" cy="58" r="22" fill="#fff9c4"/>
<!-- Quyosh nurlari -->
<line x1="980" y1="10" x2="980" y2="22" stroke="#ffd600" stroke-width="2.5"/>
<line x1="980" y1="94" x2="980" y2="106" stroke="#ffd600" stroke-width="2.5"/>
<line x1="935" y1="58" x2="924" y2="58" stroke="#ffd600" stroke-width="2.5"/>
<line x1="1025" y1="58" x2="1036" y2="58" stroke="#ffd600" stroke-width="2.5"/>
<line x1="948" y1="26" x2="940" y2="18" stroke="#ffd600" stroke-width="2"/>
<line x1="1012" y1="90" x2="1020" y2="98" stroke="#ffd600" stroke-width="2"/>
<line x1="1012" y1="26" x2="1020" y2="18" stroke="#ffd600" stroke-width="2"/>
<line x1="948" y1="90" x2="940" y2="98" stroke="#ffd600" stroke-width="2"/>

<!-- Bulutlar -->
<ellipse cx="140" cy="42" rx="58" ry="24" fill="white" opacity="0.92"/>
<ellipse cx="185" cy="33" rx="42" ry="20" fill="white" opacity="0.88"/>
<ellipse cx="108" cy="36" rx="36" ry="18" fill="white" opacity="0.85"/>
<ellipse cx="165" cy="48" rx="30" ry="14" fill="#f0f8ff" opacity="0.7"/>

<ellipse cx="520" cy="38" rx="62" ry="22" fill="white" opacity="0.88"/>
<ellipse cx="565" cy="28" rx="44" ry="19" fill="white" opacity="0.85"/>
<ellipse cx="490" cy="33" rx="38" ry="16" fill="white" opacity="0.82"/>

<!-- Yomg'ir tomchilari -->
<line x1="480" y1="68" x2="474" y2="84" stroke="#4fc3f7" stroke-width="2.2"/>
<line x1="500" y1="72" x2="494" y2="88" stroke="#29b6f6" stroke-width="2"/>
<line x1="520" y1="67" x2="514" y2="83" stroke="#4fc3f7" stroke-width="2.2"/>
<line x1="540" y1="73" x2="534" y2="89" stroke="#29b6f6" stroke-width="2"/>
<line x1="560" y1="68" x2="554" y2="84" stroke="#4fc3f7" stroke-width="2"/>
<line x1="580" y1="71" x2="574" y2="87" stroke="#29b6f6" stroke-width="2.2"/>
<!-- Infiltratsiya o'qlari -->
<line x1="490" y1="112" x2="490" y2="128" stroke="#0288d1" stroke-width="1.8" marker-end="url(#arr_down_blue)"/>
<line x1="525" y1="112" x2="525" y2="128" stroke="#0288d1" stroke-width="1.8" marker-end="url(#arr_down_blue)"/>
<line x1="560" y1="112" x2="560" y2="128" stroke="#0288d1" stroke-width="1.8" marker-end="url(#arr_down_blue)"/>


<!-- ===== YER YUZASI - O'T ===== -->
<path d="M0,118 Q55,106 110,118 Q165,130 220,118 Q275,106 330,118 Q385,130 440,118 Q495,106 550,118 Q605,130 660,118 Q715,106 770,118 Q825,130 880,118 Q935,106 990,118 Q1045,130 1100,118 L1100,138 L0,138 Z" fill="url(#grass_grad)"/>
<!-- O'tlar -->
<line x1="55" y1="118" x2="50" y2="103" stroke="#2e7d32" stroke-width="2.2"/>
<line x1="62" y1="118" x2="68" y2="102" stroke="#43a047" stroke-width="2"/>
<line x1="130" y1="115" x2="125" y2="100" stroke="#2e7d32" stroke-width="2"/>
<line x1="137" y1="115" x2="143" y2="100" stroke="#43a047" stroke-width="2.2"/>
<line x1="310" y1="117" x2="305" y2="102" stroke="#2e7d32" stroke-width="2"/>
<line x1="317" y1="117" x2="323" y2="102" stroke="#43a047" stroke-width="2"/>
<line x1="690" y1="116" x2="685" y2="101" stroke="#2e7d32" stroke-width="2.2"/>
<line x1="697" y1="116" x2="703" y2="101" stroke="#43a047" stroke-width="2"/>
<line x1="870" y1="117" x2="865" y2="102" stroke="#2e7d32" stroke-width="2"/>
<line x1="877" y1="117" x2="883" y2="102" stroke="#43a047" stroke-width="2.2"/>

<!-- Daraxt (chap) -->
<rect x="48" y="84" width="10" height="35" fill="#5d4037" rx="2"/>
<ellipse cx="53" cy="72" rx="26" ry="28" fill="#1b5e20"/>
<ellipse cx="38" cy="82" rx="18" ry="20" fill="#2e7d32"/>
<ellipse cx="70" cy="80" rx="18" ry="20" fill="#1b5e20"/>
<ellipse cx="53" cy="60" rx="18" ry="18" fill="#388e3c"/>

<!-- Daraxt (o'ng) -->
<rect x="848" y="84" width="10" height="35" fill="#5d4037" rx="2"/>
<ellipse cx="853" cy="72" rx="28" ry="30" fill="#1b5e20"/>
<ellipse cx="836" cy="82" rx="19" ry="21" fill="#2e7d32"/>
<ellipse cx="872" cy="80" rx="19" ry="21" fill="#1b5e20"/>
<ellipse cx="853" cy="58" rx="19" ry="19" fill="#388e3c"/>

<!-- Tepalik (o'ng tomonida) -->
<ellipse cx="1050" cy="122" rx="80" ry="30" fill="#4caf50" opacity="0.6"/>
<ellipse cx="1060" cy="118" rx="60" ry="22" fill="#66bb6a" opacity="0.5"/>


<!-- ===== I QATLAM: QURUQ G'OVAK TUPROQ ===== -->
<rect x="0" y="138" width="1100" height="90" fill="url(#porous_dry)"/>
<!-- Donachalar -->
<circle cx="90" cy="158" r="8" fill="#8a5c20" opacity="0.6"/>
<circle cx="195" cy="172" r="10" fill="#7a4c18" opacity="0.5"/>
<circle cx="320" cy="155" r="7" fill="#9a6c30" opacity="0.6"/>
<circle cx="440" cy="175" r="9" fill="#8a5c20" opacity="0.55"/>
<circle cx="620" cy="160" r="8" fill="#7a4c18" opacity="0.6"/>
<circle cx="750" cy="173" r="10" fill="#9a6c30" opacity="0.5"/>
<circle cx="900" cy="158" r="7" fill="#8a5c20" opacity="0.6"/>
<circle cx="1020" cy="170" r="9" fill="#7a4c18" opacity="0.55"/>

<!-- ===== SIZOT SUV ERKIN SATHI ===== -->
<path d="M0,228 Q28,220 56,228 Q84,236 112,228 Q140,220 168,228 Q196,236 224,228 Q252,220 280,228 Q308,236 336,228 Q364,220 392,228 Q420,236 448,228 Q476,220 504,228 Q532,236 560,228 Q588,220 616,228 Q644,236 672,228 Q700,220 728,228 Q756,236 784,228 Q812,220 840,228 Q868,236 896,228 Q924,220 952,228 Q980,236 1008,228 Q1036,220 1064,228 Q1092,236 1100,228"
      fill="none" stroke="#0277bd" stroke-width="3"/>

<!-- ===== II QATLAM: SIZOT SUV QATLAMI ===== -->
<rect x="0" y="228" width="1100" height="72" fill="url(#porous_wet)"/>
<!-- Gorizontal oqimlar -->
<line x1="30" y1="252" x2="110" y2="252" stroke="#82cfff" stroke-width="2" stroke-dasharray="8,4" marker-end="url(#arr_blue)"/>
<line x1="170" y1="258" x2="250" y2="258" stroke="#82cfff" stroke-width="2" stroke-dasharray="8,4" marker-end="url(#arr_blue)"/>
<line x1="30" y1="270" x2="110" y2="270" stroke="#82cfff" stroke-width="2" stroke-dasharray="8,4" marker-end="url(#arr_blue)"/>
<line x1="170" y1="276" x2="250" y2="276" stroke="#82cfff" stroke-width="2" stroke-dasharray="8,4" marker-end="url(#arr_blue)"/>

<!-- ===== III QATLAM: GIL/LOY (suyo'tkazmas 1) ===== -->
<rect x="0" y="300" width="1100" height="38" fill="url(#clay_pat)"/>
<line x1="0" y1="303" x2="1100" y2="303" stroke="#5d4037" stroke-width="2"/>
<line x1="0" y1="335" x2="1100" y2="335" stroke="#5d4037" stroke-width="2"/>
<!-- Sizib o'tish (vertikal, kamroq) -->
<line x1="700" y1="300" x2="700" y2="338" stroke="#ff7043" stroke-width="1.8" stroke-dasharray="3,3" marker-end="url(#arr_down_orange)"/>
<line x1="900" y1="300" x2="900" y2="338" stroke="#ff7043" stroke-width="1.8" stroke-dasharray="3,3" marker-end="url(#arr_down_orange)"/>

<!-- ===== IV QATLAM: BIRINCHI NAPORLI SUV ===== -->
<rect x="0" y="338" width="1100" height="95" fill="url(#porous_wet)"/>
<!-- Kuchli gorizontal napr oqimlari -->
<line x1="25" y1="365" x2="130" y2="365" stroke="#90caf9" stroke-width="2.5" marker-end="url(#arr_blue)"/>
<line x1="25" y1="385" x2="130" y2="385" stroke="#90caf9" stroke-width="2.5" marker-end="url(#arr_blue)"/>
<line x1="180" y1="375" x2="285" y2="375" stroke="#90caf9" stroke-width="2.5" marker-end="url(#arr_blue)"/>
<line x1="180" y1="395" x2="285" y2="395" stroke="#90caf9" stroke-width="2.5" marker-end="url(#arr_blue)"/>
<!-- Bosim to'lqinlari -->
<path d="M340,370 Q360,362 380,370 Q400,378 420,370" fill="none" stroke="#90caf9" stroke-width="2" opacity="0.6"/>
<path d="M450,380 Q470,372 490,380 Q510,388 530,380" fill="none" stroke="#90caf9" stroke-width="2" opacity="0.6"/>
<path d="M700,365 Q720,357 740,365 Q760,373 780,365" fill="none" stroke="#90caf9" stroke-width="2" opacity="0.6"/>
<path d="M820,378 Q840,370 860,378 Q880,386 900,378" fill="none" stroke="#90caf9" stroke-width="2" opacity="0.6"/>

<!-- ===== V QATLAM: TOSHQATLAM (suyo'tkazmas 2) ===== -->
<rect x="0" y="433" width="1100" height="38" fill="url(#rock_pat)"/>
<line x1="0" y1="436" x2="1100" y2="436" stroke="#37474f" stroke-width="2.5"/>
<line x1="0" y1="468" x2="1100" y2="468" stroke="#37474f" stroke-width="2.5"/>
<!-- Tosh bo'laklari -->
<polygon points="100,436 140,436 120,452" fill="#455a64" opacity="0.5"/>
<polygon points="300,436 348,436 324,456" fill="#37474f" opacity="0.45"/>
<polygon points="620,438 665,438 643,454" fill="#455a64" opacity="0.5"/>
<polygon points="850,436 895,436 873,452" fill="#37474f" opacity="0.45"/>
<!-- Sizib o'tish 2 -->
<line x1="650" y1="433" x2="650" y2="471" stroke="#ff7043" stroke-width="1.8" stroke-dasharray="3,3" marker-end="url(#arr_down_orange)"/>
<line x1="850" y1="433" x2="850" y2="471" stroke="#ff7043" stroke-width="1.8" stroke-dasharray="3,3" marker-end="url(#arr_down_orange)"/>


<!-- ===== VI QATLAM: IKKINCHI NAPORLI SUV (ARTEZIAN) ===== -->
<rect x="0" y="471" width="1100" height="95" fill="url(#porous_deep)"/>
<!-- Kuchli artezian oqimlari -->
<line x1="20" y1="500" x2="140" y2="500" stroke="#82b1ff" stroke-width="3" marker-end="url(#arr_deepblue)"/>
<line x1="20" y1="522" x2="140" y2="522" stroke="#82b1ff" stroke-width="3" marker-end="url(#arr_deepblue)"/>
<line x1="190" y1="510" x2="310" y2="510" stroke="#82b1ff" stroke-width="3" marker-end="url(#arr_deepblue)"/>
<line x1="190" y1="532" x2="310" y2="532" stroke="#82b1ff" stroke-width="3" marker-end="url(#arr_deepblue)"/>
<path d="M360,505 Q385,494 410,505 Q435,516 460,505" fill="none" stroke="#82b1ff" stroke-width="2.5" opacity="0.7"/>
<path d="M500,520 Q525,509 550,520 Q575,531 600,520" fill="none" stroke="#82b1ff" stroke-width="2.5" opacity="0.7"/>
<path d="M730,505 Q755,494 780,505 Q805,516 830,505" fill="none" stroke="#82b1ff" stroke-width="2.5" opacity="0.7"/>
<path d="M870,518 Q895,507 920,518 Q945,529 970,518" fill="none" stroke="#82b1ff" stroke-width="2.5" opacity="0.7"/>

<!-- ===== VII QATLAM: GRANIT ASOS ===== -->
<rect x="0" y="566" width="1100" height="114" fill="url(#granite_pat)"/>
<line x1="0" y1="570" x2="1100" y2="570" stroke="#111" stroke-width="3"/>
<!-- Granit tekstura qo'shimcha -->
<polygon points="0,570 90,570 45,595" fill="#555" opacity="0.4"/>
<polygon points="90,570 220,570 155,600" fill="#222" opacity="0.35"/>
<polygon points="220,570 370,570 295,598" fill="#555" opacity="0.4"/>
<polygon points="370,570 520,570 445,596" fill="#222" opacity="0.35"/>
<polygon points="520,570 670,570 595,600" fill="#555" opacity="0.4"/>
<polygon points="670,570 830,570 750,598" fill="#222" opacity="0.35"/>
<polygon points="830,570 1000,570 915,596" fill="#555" opacity="0.4"/>
<polygon points="1000,570 1100,570 1100,600 1050,595" fill="#222" opacity="0.35"/>

<!-- ===== QATLAM CHEGARALARI (aniq chiziqlar) ===== -->
<line x1="0" y1="138" x2="1100" y2="138" stroke="#5d4037" stroke-width="1.5" opacity="0.5"/>
<line x1="0" y1="228" x2="1100" y2="228" stroke="#01579b" stroke-width="1" opacity="0.3"/>
<line x1="0" y1="300" x2="1100" y2="300" stroke="#3e2723" stroke-width="2"/>
<line x1="0" y1="338" x2="1100" y2="338" stroke="#3e2723" stroke-width="2"/>
<line x1="0" y1="433" x2="1100" y2="433" stroke="#263238" stroke-width="2.5"/>
<line x1="0" y1="471" x2="1100" y2="471" stroke="#263238" stroke-width="2.5"/>
<line x1="0" y1="566" x2="1100" y2="566" stroke="#111" stroke-width="3"/>


<!-- ===== SIZOT QUDUQ (chap) ===== -->
<!-- Quduq tashqi devor -->
<rect x="195" y="138" width="22" height="170" rx="3" fill="#616161" filter="url(#shadow)"/>
<!-- Quduq ichki suv -->
<rect x="200" y="228" width="12" height="72" fill="#29b6f6" opacity="0.9"/>
<!-- Halqalar -->
<rect x="193" y="150" width="26" height="6" rx="2" fill="#424242"/>
<rect x="193" y="168" width="26" height="6" rx="2" fill="#757575"/>
<rect x="193" y="186" width="26" height="6" rx="2" fill="#424242"/>
<rect x="193" y="204" width="26" height="6" rx="2" fill="#757575"/>
<rect x="193" y="222" width="26" height="6" rx="2" fill="#424242"/>
<rect x="193" y="240" width="26" height="6" rx="2" fill="#757575"/>
<rect x="193" y="258" width="26" height="6" rx="2" fill="#424242"/>
<rect x="193" y="276" width="26" height="6" rx="2" fill="#757575"/>
<!-- Quduq boshi -->
<rect x="188" y="130" width="36" height="14" rx="4" fill="#424242" filter="url(#shadow)"/>
<!-- Chelak arqon -->
<line x1="206" y1="104" x2="206" y2="132" stroke="#9e9e9e" stroke-width="1.5"/>
<rect x="198" y="94" width="16" height="12" rx="3" fill="#9e9e9e"/>
<!-- Suv kirib kelishi -->
<line x1="195" y1="255" x2="165" y2="255" stroke="#29b6f6" stroke-width="2.5" marker-end="url(#arr_blue)"/>
<line x1="217" y1="262" x2="247" y2="262" stroke="#29b6f6" stroke-width="2.5"/>

<!-- ===== NAPORLI (ARTEZIAN) QUDUQ (o'rta) ===== -->
<!-- Quduq tashqi devor - chuqur -->
<rect x="618" y="138" width="24" height="436" rx="3" fill="#37474f" filter="url(#shadow)"/>
<!-- Ichki suv qatlamlar bo'yicha -->
<rect x="623" y="228" width="14" height="72" fill="#29b6f6" opacity="0.8"/>
<rect x="623" y="338" width="14" height="95" fill="#1976d2" opacity="0.85"/>
<rect x="623" y="471" width="14" height="95" fill="#0d47a1" opacity="0.9"/>
<!-- Halqalar -->
<rect x="616" y="152" width="28" height="6" rx="2" fill="#455a64"/>
<rect x="616" y="175" width="28" height="6" rx="2" fill="#607d8b"/>
<rect x="616" y="198" width="28" height="6" rx="2" fill="#455a64"/>
<rect x="616" y="221" width="28" height="6" rx="2" fill="#607d8b"/>
<rect x="616" y="250" width="28" height="6" rx="2" fill="#455a64"/>
<rect x="616" y="280" width="28" height="6" rx="2" fill="#607d8b"/>
<rect x="616" y="315" width="28" height="6" rx="2" fill="#455a64"/>
<rect x="616" y="355" width="28" height="6" rx="2" fill="#607d8b"/>
<rect x="616" y="395" width="28" height="6" rx="2" fill="#455a64"/>
<rect x="616" y="440" width="28" height="6" rx="2" fill="#607d8b"/>
<rect x="616" y="490" width="28" height="6" rx="2" fill="#455a64"/>
<rect x="616" y="530" width="28" height="6" rx="2" fill="#607d8b"/>
<!-- Quduq boshi -->
<rect x="612" y="130" width="36" height="14" rx="4" fill="#37474f" filter="url(#shadow)"/>
<!-- Artezian - suv o'z-o'zidan otilishi -->
<rect x="625" y="82" width="10" height="50" fill="#29b6f6"/>
<!-- Fontan -->
<path d="M630,82 Q608,55 596,32" fill="none" stroke="#4fc3f7" stroke-width="3"/>
<path d="M630,82 Q652,55 664,32" fill="none" stroke="#4fc3f7" stroke-width="3"/>
<path d="M630,82 Q622,52 618,28" fill="none" stroke="#4fc3f7" stroke-width="2.5"/>
<path d="M630,82 Q640,52 644,28" fill="none" stroke="#4fc3f7" stroke-width="2.5"/>
<path d="M630,82 Q628,48 628,22" fill="none" stroke="#4fc3f7" stroke-width="2"/>
<!-- Fontan tomchilari -->
<circle cx="596" cy="30" r="5" fill="#4fc3f7" opacity="0.85"/>
<circle cx="664" cy="30" r="5" fill="#4fc3f7" opacity="0.85"/>
<circle cx="618" cy="25" r="4" fill="#29b6f6" opacity="0.8"/>
<circle cx="644" cy="25" r="4" fill="#29b6f6" opacity="0.8"/>
<circle cx="628" cy="20" r="3.5" fill="#4fc3f7" opacity="0.75"/>
<!-- Kichik tomchilar -->
<circle cx="588" cy="18" r="3" fill="#4fc3f7" opacity="0.6"/>
<circle cx="672" cy="18" r="3" fill="#4fc3f7" opacity="0.6"/>
<circle cx="610" cy="12" r="2.5" fill="#29b6f6" opacity="0.55"/>
<circle cx="650" cy="12" r="2.5" fill="#29b6f6" opacity="0.55"/>
<!-- Piezometrik sath -->
<line x1="630" y1="82" x2="870" y2="82" stroke="#69f0ae" stroke-width="2" stroke-dasharray="10,5"/>
<line x1="630" y1="82" x2="380" y2="82" stroke="#69f0ae" stroke-width="2" stroke-dasharray="10,5"/>
<!-- Napr suv kirib kelishi -->
<line x1="618" y1="385" x2="585" y2="385" stroke="#90caf9" stroke-width="2.5" marker-end="url(#arr_blue)"/>
<line x1="642" y1="390" x2="675" y2="390" stroke="#90caf9" stroke-width="2.5"/>
<line x1="618" y1="515" x2="585" y2="515" stroke="#82b1ff" stroke-width="2.5" marker-end="url(#arr_deepblue)"/>
<line x1="642" y1="520" x2="675" y2="520" stroke="#82b1ff" stroke-width="2.5"/>

<!-- ===== RANGLAR LEGENDA (pastki) ===== -->
<rect x="0" y="625" width="1100" height="55" fill="#1a237e" opacity="0.95"/>
<!-- Ranglar -->
<rect x="15" y="636" width="22" height="14" fill="#c8913a" rx="2"/>
<rect x="160" y="636" width="22" height="14" fill="#29b6f6" rx="2"/>
<rect x="305" y="636" width="22" height="14" fill="#8d6e63" rx="2"/>
<rect x="450" y="636" width="22" height="14" fill="#1976d2" rx="2"/>
<rect x="595" y="636" width="22" height="14" fill="#607d8b" rx="2"/>
<rect x="740" y="636" width="22" height="14" fill="#0d47a1" rx="2"/>
<rect x="885" y="636" width="22" height="14" fill="#2c2c2c" rx="2"/>
<!-- Matnlar -->
<text x="43" y="648" font-size="11" fill="white">Quruq tuproq</text>
<text x="188" y="648" font-size="11" fill="white">Sizot suv (h₁)</text>
<text x="333" y="648" font-size="11" fill="white">Gil qatlam (K_b₁)</text>
<text x="478" y="648" font-size="11" fill="white">Naporli suv (H₁)</text>
<text x="623" y="648" font-size="11" fill="white">Tosh qatlam (K_b₂)</text>
<text x="768" y="648" font-size="11" fill="white">Artezian suv (H₂)</text>
<text x="913" y="648" font-size="11" fill="white">Granit asos</text>
<!-- Ikkinchi qator -->
<line x1="15" y1="658" x2="45" y2="658" stroke="#0277bd" stroke-width="2.5"/>
<text x="50" y="668" font-size="10" fill="#b3e5fc">Erkin sirt ~ ~ ~</text>
<line x1="170" y1="658" x2="210" y2="658" stroke="#69f0ae" stroke-width="2" stroke-dasharray="8,4"/>
<text x="215" y="668" font-size="10" fill="#b2dfdb">Piezometrik sath</text>
<line x1="370" y1="656" x2="400" y2="670" stroke="#ff7043" stroke-width="1.8" stroke-dasharray="3,3" marker-end="url(#arr_down_orange)"/>
<text x="405" y="668" font-size="10" fill="#ffccbc">Sizib o'tish w(x,t)</text>
<line x1="570" y1="658" x2="610" y2="658" stroke="#90caf9" stroke-width="2.5" marker-end="url(#arr_blue)"/>
<text x="615" y="668" font-size="10" fill="#bbdefb">Gorizontal oqim</text>
<text x="790" y="668" font-size="10" fill="#b2ebf2">Artezian fontan</text>

</svg>
