<?xml version="1.0" encoding="UTF-8"?>
<svg xmlns="http://www.w3.org/2000/svg" width="1100" height="750" viewBox="0 0 1100 750">
<defs>
  <!-- Gradientlar -->
  <linearGradient id="sky" x1="0" y1="0" x2="0" y2="1">
    <stop offset="0%" stop-color="#1a6fbf"/>
    <stop offset="60%" stop-color="#5ba3d9"/>
    <stop offset="100%" stop-color="#c8e8f8"/>
  </linearGradient>
  <linearGradient id="grass_g" x1="0" y1="0" x2="0" y2="1">
    <stop offset="0%" stop-color="#7cb342"/>
    <stop offset="100%" stop-color="#4a7c20"/>
  </linearGradient>
  <linearGradient id="vadoz_g" x1="0" y1="0" x2="0" y2="1">
    <stop offset="0%" stop-color="#d4a96a"/>
    <stop offset="100%" stop-color="#b07830"/>
  </linearGradient>
  <linearGradient id="sizot_g" x1="0" y1="0" x2="0" y2="1">
    <stop offset="0%" stop-color="#64b5f6"/>
    <stop offset="100%" stop-color="#1565c0"/>
  </linearGradient>
  <linearGradient id="clay1_g" x1="0" y1="0" x2="0" y2="1">
    <stop offset="0%" stop-color="#a1887f"/>
    <stop offset="100%" stop-color="#6d4c41"/>
  </linearGradient>
  <linearGradient id="napor1_g" x1="0" y1="0" x2="0" y2="1">
    <stop offset="0%" stop-color="#1976d2"/>
    <stop offset="100%" stop-color="#0d47a1"/>
  </linearGradient>
  <linearGradient id="clay2_g" x1="0" y1="0" x2="0" y2="1">
    <stop offset="0%" stop-color="#8d6e63"/>
    <stop offset="100%" stop-color="#5d4037"/>
  </linearGradient>
  <linearGradient id="napor2_g" x1="0" y1="0" x2="0" y2="1">
    <stop offset="0%" stop-color="#0d47a1"/>
    <stop offset="100%" stop-color="#002171"/>
  </linearGradient>
  <linearGradient id="granit_g" x1="0" y1="0" x2="0" y2="1">
    <stop offset="0%" stop-color="#455a64"/>
    <stop offset="100%" stop-color="#1c313a"/>
  </linearGradient>
  <linearGradient id="well_g" x1="0" y1="0" x2="1" y2="0">
    <stop offset="0%" stop-color="#37474f"/>
    <stop offset="40%" stop-color="#90a4ae"/>
    <stop offset="100%" stop-color="#37474f"/>
  </linearGradient>
  <linearGradient id="sun_g" cx="0.4" cy="0.4" r="0.6" gradientUnits="objectBoundingBox">
    <stop offset="0%" stop-color="#fffde7"/>
    <stop offset="100%" stop-color="#f9a825"/>
  </linearGradient>
  <!-- G'ovak pattern — quruq -->
  <pattern id="p_dry" width="20" height="16" patternUnits="userSpaceOnUse">
    <rect width="20" height="16" fill="#c8913a"/>
    <ellipse cx="5" cy="5" rx="3.5" ry="2.5" fill="#8a5c18" opacity="0.55"/>
    <ellipse cx="15" cy="11" rx="4" ry="2.8" fill="#7a4c10" opacity="0.45"/>
    <ellipse cx="3" cy="13" rx="2.5" ry="1.8" fill="#9a6c28" opacity="0.4"/>
  </pattern>
  <!-- G'ovak pattern — sizot suv -->
  <pattern id="p_sizot" width="18" height="14" patternUnits="userSpaceOnUse">
    <rect width="18" height="14" fill="#1565c0"/>
    <ellipse cx="4" cy="4" rx="3" ry="2.2" fill="#0d3f8a" opacity="0.55"/>
    <ellipse cx="13" cy="9" rx="3.5" ry="2.5" fill="#092860" opacity="0.45"/>
    <ellipse cx="3" cy="11" rx="2" ry="1.5" fill="#0d3f8a" opacity="0.4"/>
  </pattern>
  <!-- G'ovak pattern — naporli 1 -->
  <pattern id="p_nap1" width="18" height="14" patternUnits="userSpaceOnUse">
    <rect width="18" height="14" fill="#1976d2"/>
    <ellipse cx="4" cy="4" rx="3" ry="2.2" fill="#0d47a1" opacity="0.5"/>
    <ellipse cx="13" cy="9" rx="3.5" ry="2.5" fill="#003c8f" opacity="0.45"/>
  </pattern>
  <!-- G'ovak pattern — naporli 2 -->
  <pattern id="p_nap2" width="18" height="14" patternUnits="userSpaceOnUse">
    <rect width="18" height="14" fill="#0d47a1"/>
    <ellipse cx="4" cy="4" rx="3" ry="2.2" fill="#002171" opacity="0.55"/>
    <ellipse cx="13" cy="9" rx="3.5" ry="2.5" fill="#001050" opacity="0.45"/>
  </pattern>
  <!-- Gil pattern 1 -->
  <pattern id="p_clay1" width="26" height="11" patternUnits="userSpaceOnUse">
    <rect width="26" height="11" fill="#a1887f"/>
    <line x1="0" y1="3" x2="26" y2="3" stroke="#6d4c41" stroke-width="1.3"/>
    <line x1="0" y1="7" x2="26" y2="7" stroke="#6d4c41" stroke-width="0.7"/>
    <line x1="6" y1="0" x2="0" y2="6" stroke="#6d4c41" stroke-width="0.6" opacity="0.4"/>
    <line x1="20" y1="0" x2="26" y2="6" stroke="#6d4c41" stroke-width="0.6" opacity="0.4"/>
  </pattern>
  <!-- Gil pattern 2 (qattiqroq) -->
  <pattern id="p_clay2" width="26" height="11" patternUnits="userSpaceOnUse">
    <rect width="26" height="11" fill="#8d6e63"/>
    <line x1="0" y1="3" x2="26" y2="3" stroke="#4e342e" stroke-width="1.5"/>
    <line x1="0" y1="7" x2="26" y2="7" stroke="#4e342e" stroke-width="0.8"/>
    <line x1="5" y1="0" x2="0" y2="5" stroke="#4e342e" stroke-width="0.7" opacity="0.4"/>
    <line x1="18" y1="0" x2="26" y2="8" stroke="#4e342e" stroke-width="0.7" opacity="0.4"/>
  </pattern>
  <!-- Granit pattern -->
  <pattern id="p_gran" width="34" height="22" patternUnits="userSpaceOnUse">
    <rect width="34" height="22" fill="#263238"/>
    <polygon points="0,0 17,0 8,11" fill="#37474f" opacity="0.5"/>
    <polygon points="17,0 34,0 25,11" fill="#1a252a" opacity="0.5"/>
    <polygon points="0,11 17,11 8,22" fill="#1a252a" opacity="0.5"/>
    <polygon points="17,11 34,11 25,22" fill="#37474f" opacity="0.5"/>
    <circle cx="6" cy="5" r="2.5" fill="#455a64" opacity="0.5"/>
    <circle cx="26" cy="16" r="2" fill="#455a64" opacity="0.5"/>
  </pattern>
  <!-- Strelkalar -->
  <marker id="arr_r" markerWidth="10" markerHeight="7" refX="9" refY="3.5" orient="auto">
    <polygon points="0 0,10 3.5,0 7" fill="#90caf9"/>
  </marker>
  <marker id="arr_r2" markerWidth="10" markerHeight="7" refX="9" refY="3.5" orient="auto">
    <polygon points="0 0,10 3.5,0 7" fill="#b3e5fc"/>
  </marker>
  <marker id="arr_down" markerWidth="7" markerHeight="10" refX="3.5" refY="9" orient="auto">
    <polygon points="0 0,7 0,3.5 10" fill="#4fc3f7"/>
  </marker>
  <marker id="arr_down2" markerWidth="7" markerHeight="10" refX="3.5" refY="9" orient="auto">
    <polygon points="0 0,7 0,3.5 10" fill="#ff8a65"/>
  </marker>
  <marker id="arr_up" markerWidth="7" markerHeight="10" refX="3.5" refY="1" orient="auto">
    <polygon points="0 10,7 10,3.5 0" fill="#69f0ae"/>
  </marker>
  <!-- Filtrlar -->
  <filter id="blur3"><feGaussianBlur stdDeviation="3"/></filter>
  <filter id="glow">
    <feGaussianBlur stdDeviation="4" result="b"/>
    <feMerge><feMergeNode in="b"/><feMergeNode in="SourceGraphic"/></feMerge>
  </filter>
  <filter id="shadow">
    <feDropShadow dx="2" dy="2" stdDeviation="3" flood-color="#00000040"/>
  </filter>
</defs>

<!-- ═══════════════════════════════════════════════════════ -->
<!-- OSMON -->
<!-- ═══════════════════════════════════════════════════════ -->
<rect width="1100" height="160" fill="url(#sky)"/>

<!-- Quyosh -->
<circle cx="980" cy="68" r="52" fill="#fff9c4" opacity="0.15" filter="url(#blur3)"/>
<circle cx="980" cy="68" r="36" fill="#ffee58" opacity="0.6"/>
<circle cx="980" cy="68" r="24" fill="#fffde7"/>
<line x1="980" y1="22" x2="980" y2="34" stroke="#ffd600" stroke-width="2.5"/>
<line x1="980" y1="102" x2="980" y2="114" stroke="#ffd600" stroke-width="2.5"/>
<line x1="934" y1="68" x2="922" y2="68" stroke="#ffd600" stroke-width="2.5"/>
<line x1="1026" y1="68" x2="1038" y2="68" stroke="#ffd600" stroke-width="2.5"/>
<line x1="947" y1="35" x2="939" y2="27" stroke="#ffd600" stroke-width="2"/>
<line x1="1013" y1="101" x2="1021" y2="109" stroke="#ffd600" stroke-width="2"/>
<line x1="1013" y1="35" x2="1021" y2="27" stroke="#ffd600" stroke-width="2"/>
<line x1="947" y1="101" x2="939" y2="109" stroke="#ffd600" stroke-width="2"/>

<!-- Bulutlar -->
<ellipse cx="180" cy="50" rx="75" ry="30" fill="white" opacity="0.92"/>
<ellipse cx="235" cy="36" rx="55" ry="24" fill="white" opacity="0.88"/>
<ellipse cx="140" cy="44" rx="48" ry="22" fill="white" opacity="0.85"/>
<ellipse cx="200" cy="62" rx="38" ry="15" fill="#f5f5f5" opacity="0.6"/>

<ellipse cx="620" cy="44" rx="68" ry="26" fill="white" opacity="0.88"/>
<ellipse cx="670" cy="32" rx="50" ry="21" fill="white" opacity="0.85"/>
<ellipse cx="585" cy="38" rx="42" ry="19" fill="white" opacity="0.82"/>

<!-- Yomg'ir -->
<line x1="148" y1="78" x2="142" y2="96" stroke="#4fc3f7" stroke-width="2.2"/>
<line x1="168" y1="82" x2="162" y2="100" stroke="#29b6f6" stroke-width="2"/>
<line x1="188" y1="78" x2="182" y2="96" stroke="#4fc3f7" stroke-width="2.2"/>
<line x1="208" y1="82" x2="202" y2="100" stroke="#29b6f6" stroke-width="2"/>
<line x1="228" y1="78" x2="222" y2="96" stroke="#4fc3f7" stroke-width="2"/>
<!-- Infiltratsiya o'qlari -->
<line x1="158" y1="130" x2="158" y2="145" stroke="#0288d1" stroke-width="1.8" marker-end="url(#arr_down)"/>
<line x1="195" y1="130" x2="195" y2="145" stroke="#0288d1" stroke-width="1.8" marker-end="url(#arr_down)"/>
<line x1="232" y1="130" x2="232" y2="145" stroke="#0288d1" stroke-width="1.8" marker-end="url(#arr_down)"/>

<!-- ═══════════════════════════════════════════════════════ -->
<!-- YER YUZASI -->
<!-- ═══════════════════════════════════════════════════════ -->
<path d="M0,148 Q55,136 110,148 Q165,160 220,148 Q275,136 330,148 Q385,160 440,148 Q495,136 550,148 Q605,160 660,148 Q715,136 770,148 Q825,160 880,148 Q935,136 990,148 Q1045,160 1100,148 L1100,168 L0,168 Z" fill="url(#grass_g)"/>
<!-- O'tlar -->
<line x1="290" y1="150" x2="283" y2="132" stroke="#2e7d32" stroke-width="2.5"/>
<line x1="298" y1="149" x2="305" y2="131" stroke="#43a047" stroke-width="2.2"/>
<line x1="420" y1="148" x2="413" y2="130" stroke="#2e7d32" stroke-width="2.5"/>
<line x1="428" y1="147" x2="435" y2="129" stroke="#43a047" stroke-width="2.2"/>
<line x1="720" y1="150" x2="713" y2="132" stroke="#2e7d32" stroke-width="2.5"/>
<line x1="728" y1="149" x2="735" y2="131" stroke="#43a047" stroke-width="2.2"/>
<line x1="870" y1="148" x2="863" y2="130" stroke="#2e7d32" stroke-width="2.5"/>
<line x1="878" y1="147" x2="885" y2="129" stroke="#43a047" stroke-width="2.2"/>
<!-- Daraxt -->
<rect x="58" y="112" width="12" height="40" fill="#4e342e" rx="2"/>
<ellipse cx="64" cy="100" rx="30" ry="32" fill="#1b5e20"/>
<ellipse cx="48" cy="112" rx="20" ry="24" fill="#2e7d32"/>
<ellipse cx="82" cy="110" rx="20" ry="24" fill="#1b5e20"/>
<ellipse cx="64" cy="86" rx="22" ry="20" fill="#33691e"/>
<!-- Daraxt 2 -->
<rect x="1018" y="116" width="11" height="36" fill="#4e342e" rx="2"/>
<ellipse cx="1023" cy="104" rx="26" ry="28" fill="#2e7d32"/>
<ellipse cx="1008" cy="114" rx="18" ry="21" fill="#33691e"/>
<ellipse cx="1040" cy="112" rx="18" ry="21" fill="#2e7d32"/>

<!-- ═══════════════════════════════════════════════════════ -->
<!-- I QATLAM: VADOZ ZONA (quruq tuproq) -->
<!-- ═══════════════════════════════════════════════════════ -->
<rect x="0" y="168" width="1100" height="88" fill="url(#p_dry)"/>
<!-- Qo'shimcha donachalar -->
<circle cx="300" cy="195" r="10" fill="#7a4c18" opacity="0.4"/>
<circle cx="500" cy="215" r="12" fill="#6a3c10" opacity="0.35"/>
<circle cx="700" cy="192" r="9" fill="#8a5c20" opacity="0.4"/>
<circle cx="900" cy="212" r="11" fill="#7a4c18" opacity="0.35"/>

<!-- SIZOT SUV ERKIN SATHI -->
<path d="M0,256 Q28,246 56,256 Q84,266 112,256 Q140,246 168,256 Q196,266 224,256 Q252,246 280,256 Q308,266 336,256 Q364,246 392,256 Q420,266 448,256 Q476,246 504,256 Q532,266 560,256 Q588,246 616,256 Q644,266 672,256 Q700,246 728,256 Q756,266 784,256 Q812,246 840,256 Q868,266 896,256 Q924,246 952,256 Q980,266 1008,256 Q1036,246 1064,256 Q1092,266 1100,256"
      fill="none" stroke="#0277bd" stroke-width="3.5" opacity="0.95"/>
<!-- Sath belgisi -->
<text x="12" y="250" font-size="12" fill="#0277bd" font-style="italic" font-family="Arial">~ ~ Sizot suv erkin sathi (h₁) ~ ~</text>

<!-- ═══════════════════════════════════════════════════════ -->
<!-- II QATLAM: SIZOT SUV -->
<!-- ═══════════════════════════════════════════════════════ -->
<rect x="0" y="256" width="1100" height="68" fill="url(#p_sizot)"/>
<!-- To'lqinlar -->
<path d="M0,278 Q40,268 80,278 Q120,288 160,278 Q200,268 240,278 Q280,288 320,278 Q360,268 400,278 Q440,288 480,278 Q520,268 560,278 Q600,288 640,278 Q680,268 720,278 Q760,288 800,278 Q840,268 880,278 Q920,288 960,278 Q1000,268 1040,278 Q1080,288 1100,278"
      fill="none" stroke="#4fc3f7" stroke-width="1.8" opacity="0.5"/>
<path d="M0,298 Q40,288 80,298 Q120,308 160,298 Q200,288 240,298 Q280,308 320,298 Q360,288 400,298 Q440,308 480,298 Q520,288 560,298 Q600,308 640,298 Q680,288 720,298 Q760,308 800,298 Q840,288 880,298 Q920,308 960,298 Q1000,288 1040,298 Q1080,308 1100,298"
      fill="none" stroke="#4fc3f7" stroke-width="1.5" opacity="0.4"/>
<!-- Gorizontal oqimlar -->
<line x1="30" y1="288" x2="120" y2="288" stroke="#90caf9" stroke-width="2.2" stroke-dasharray="10,5" marker-end="url(#arr_r)"/>
<line x1="170" y1="280" x2="260" y2="280" stroke="#90caf9" stroke-width="2.2" stroke-dasharray="10,5" marker-end="url(#arr_r)"/>
<line x1="750" y1="288" x2="840" y2="288" stroke="#90caf9" stroke-width="2.2" stroke-dasharray="10,5" marker-end="url(#arr_r)"/>
<line x1="890" y1="280" x2="980" y2="280" stroke="#90caf9" stroke-width="2.2" stroke-dasharray="10,5" marker-end="url(#arr_r)"/>

<!-- ═══════════════════════════════════════════════════════ -->
<!-- III QATLAM: BIRINCHI SUST O'TKAZUVCHAN QATLAM -->
<!-- ═══════════════════════════════════════════════════════ -->
<rect x="0" y="324" width="1100" height="46" fill="url(#p_clay1)"/>
<line x1="0" y1="327" x2="1100" y2="327" stroke="#5d4037" stroke-width="2.5"/>
<line x1="0" y1="367" x2="1100" y2="367" stroke="#5d4037" stroke-width="2.5"/>
<!-- Gil bo'laklari -->
<ellipse cx="200" cy="346" rx="32" ry="10" fill="#6d4c41" opacity="0.45"/>
<ellipse cx="520" cy="342" rx="38" ry="11" fill="#5d4037" opacity="0.4"/>
<ellipse cx="820" cy="346" rx="34" ry="10" fill="#6d4c41" opacity="0.45"/>
<!-- SIZIB O'TISH (vertikal, kichik) -->
<line x1="630" y1="324" x2="630" y2="370" stroke="#ff8a65" stroke-width="2" stroke-dasharray="4,3" marker-end="url(#arr_down2)"/>
<line x1="900" y1="324" x2="900" y2="370" stroke="#ff8a65" stroke-width="2" stroke-dasharray="4,3" marker-end="url(#arr_down2)"/>

<!-- ═══════════════════════════════════════════════════════ -->
<!-- IV QATLAM: BIRINCHI NAPORLI SUV -->
<!-- ═══════════════════════════════════════════════════════ -->
<rect x="0" y="367" width="1100" height="100" fill="url(#p_nap1)"/>
<!-- To'lqinlar -->
<path d="M0,390 Q45,378 90,390 Q135,402 180,390 Q225,378 270,390 Q315,402 360,390 Q405,378 450,390 Q495,402 540,390 Q585,378 630,390 Q675,402 720,390 Q765,378 810,390 Q855,402 900,390 Q945,378 990,390 Q1035,402 1080,390 Q1100,384 1100,390"
      fill="none" stroke="#64b5f6" stroke-width="2.2" opacity="0.6"/>
<path d="M0,415 Q45,403 90,415 Q135,427 180,415 Q225,403 270,415 Q315,427 360,415 Q405,403 450,415 Q495,427 540,415 Q585,403 630,415 Q675,427 720,415 Q765,403 810,415 Q855,427 900,415 Q945,403 990,415 Q1035,427 1080,415 Q1100,409 1100,415"
      fill="none" stroke="#64b5f6" stroke-width="2" opacity="0.5"/>
<path d="M0,440 Q45,428 90,440 Q135,452 180,440 Q225,428 270,440 Q315,452 360,440 Q405,428 450,440 Q495,452 540,440 Q585,428 630,440 Q675,452 720,440 Q765,428 810,440 Q855,452 900,440 Q945,428 990,440 Q1035,452 1080,440 Q1100,434 1100,440"
      fill="none" stroke="#64b5f6" stroke-width="1.8" opacity="0.4"/>
<!-- Kuchli gorizontal oqimlar -->
<line x1="20" y1="402" x2="140" y2="402" stroke="#b3e5fc" stroke-width="3" marker-end="url(#arr_r2)"/>
<line x1="20" y1="428" x2="140" y2="428" stroke="#b3e5fc" stroke-width="3" marker-end="url(#arr_r2)"/>
<line x1="20" y1="454" x2="140" y2="454" stroke="#b3e5fc" stroke-width="2.5" marker-end="url(#arr_r2)"/>
<line x1="200" y1="415" x2="320" y2="415" stroke="#b3e5fc" stroke-width="3" marker-end="url(#arr_r2)"/>
<line x1="200" y1="441" x2="320" y2="441" stroke="#b3e5fc" stroke-width="3" marker-end="url(#arr_r2)"/>
<!-- Bosim to'lqinlari o'ngda -->
<path d="M760,400 Q790,388 820,400 Q850,412 880,400" fill="none" stroke="#90caf9" stroke-width="2.8" opacity="0.7"/>
<path d="M760,425 Q790,413 820,425 Q850,437 880,425" fill="none" stroke="#90caf9" stroke-width="2.8" opacity="0.7"/>
<path d="M760,450 Q790,438 820,450 Q850,462 880,450" fill="none" stroke="#90caf9" stroke-width="2.8" opacity="0.7"/>
<path d="M910,408 Q940,396 970,408 Q1000,420 1030,408" fill="none" stroke="#90caf9" stroke-width="2.5" opacity="0.6"/>
<path d="M910,432 Q940,420 970,432 Q1000,444 1030,432" fill="none" stroke="#90caf9" stroke-width="2.5" opacity="0.6"/>

<!-- ═══════════════════════════════════════════════════════ -->
<!-- V QATLAM: IKKINCHI SUST O'TKAZUVCHAN QATLAM -->
<!-- ═══════════════════════════════════════════════════════ -->
<rect x="0" y="467" width="1100" height="48" fill="url(#p_clay2)"/>
<line x1="0" y1="470" x2="1100" y2="470" stroke="#4e342e" stroke-width="3"/>
<line x1="0" y1="512" x2="1100" y2="512" stroke="#4e342e" stroke-width="3"/>
<!-- Qalin gil bo'laklari -->
<polygon points="120,470 178,470 149,492" fill="#5d4037" opacity="0.5"/>
<polygon points="380,470 445,470 412,494" fill="#4e342e" opacity="0.45"/>
<polygon points="680,470 742,470 711,493" fill="#5d4037" opacity="0.5"/>
<polygon points="940,470 1002,470 971,492" fill="#4e342e" opacity="0.45"/>
<!-- SIZIB O'TISH vertikal -->
<line x1="560" y1="467" x2="560" y2="515" stroke="#ff8a65" stroke-width="2" stroke-dasharray="4,3" marker-end="url(#arr_down2)"/>
<line x1="820" y1="467" x2="820" y2="515" stroke="#ff8a65" stroke-width="2" stroke-dasharray="4,3" marker-end="url(#arr_down2)"/>

<!-- ═══════════════════════════════════════════════════════ -->
<!-- VI QATLAM: IKKINCHI NAPORLI SUV (ARTEZIAN) -->
<!-- ═══════════════════════════════════════════════════════ -->
<rect x="0" y="512" width="1100" height="100" fill="url(#p_nap2)"/>
<!-- Kuchli artezian oqimlari -->
<path d="M0,535 Q50,522 100,535 Q150,548 200,535 Q250,522 300,535 Q350,548 400,535 Q450,522 500,535 Q550,548 600,535 Q650,522 700,535 Q750,548 800,535 Q850,522 900,535 Q950,548 1000,535 Q1050,522 1100,535"
      fill="none" stroke="#4fc3f7" stroke-width="2.5" opacity="0.65"/>
<path d="M0,558 Q50,545 100,558 Q150,571 200,558 Q250,545 300,558 Q350,571 400,558 Q450,545 500,558 Q550,571 600,558 Q650,545 700,558 Q750,571 800,558 Q850,545 900,558 Q950,571 1000,558 Q1050,545 1100,558"
      fill="none" stroke="#4fc3f7" stroke-width="2.2" opacity="0.55"/>
<path d="M0,582 Q50,569 100,582 Q150,595 200,582 Q250,569 300,582 Q350,595 400,582 Q450,569 500,582 Q550,595 600,582 Q650,569 700,582 Q750,595 800,582 Q850,569 900,582 Q950,595 1000,582 Q1050,569 1100,582"
      fill="none" stroke="#4fc3f7" stroke-width="2" opacity="0.45"/>
<line x1="20" y1="548" x2="145" y2="548" stroke="#b3e5fc" stroke-width="3.5" marker-end="url(#arr_r2)"/>
<line x1="20" y1="572" x2="145" y2="572" stroke="#b3e5fc" stroke-width="3.5" marker-end="url(#arr_r2)"/>
<line x1="20" y1="596" x2="145" y2="596" stroke="#b3e5fc" stroke-width="3" marker-end="url(#arr_r2)"/>
<line x1="205" y1="560" x2="330" y2="560" stroke="#b3e5fc" stroke-width="3.5" marker-end="url(#arr_r2)"/>
<line x1="205" y1="584" x2="330" y2="584" stroke="#b3e5fc" stroke-width="3.5" marker-end="url(#arr_r2)"/>

<!-- ═══════════════════════════════════════════════════════ -->
<!-- VII QATLAM: GRANIT ASOS -->
<!-- ═══════════════════════════════════════════════════════ -->
<rect x="0" y="612" width="1100" height="88" fill="url(#p_gran)"/>
<line x1="0" y1="616" x2="1100" y2="616" stroke="#111" stroke-width="3.5"/>
<polygon points="0,616 90,616 45,642" fill="#37474f" opacity="0.5"/>
<polygon points="90,616 230,616 160,645" fill="#1a252a" opacity="0.5"/>
<polygon points="230,616 400,616 315,646" fill="#37474f" opacity="0.5"/>
<polygon points="400,616 580,616 490,645" fill="#1a252a" opacity="0.5"/>
<polygon points="580,616 770,616 675,646" fill="#37474f" opacity="0.5"/>
<polygon points="770,616 960,616 865,645" fill="#1a252a" opacity="0.5"/>
<polygon points="960,616 1100,616 1100,645 1030,644" fill="#37474f" opacity="0.5"/>
<circle cx="180" cy="632" r="6" fill="#546e7a" opacity="0.5"/>
<circle cx="520" cy="636" r="5" fill="#546e7a" opacity="0.5"/>
<circle cx="860" cy="632" r="6" fill="#546e7a" opacity="0.5"/>

<!-- ═══════════════════════════════════════════════════════ -->
<!-- QATLAM CHEGARALARI -->
<!-- ═══════════════════════════════════════════════════════ -->
<line x1="0" y1="168" x2="1100" y2="168" stroke="#4e342e" stroke-width="1.5" opacity="0.4"/>
<line x1="0" y1="324" x2="1100" y2="324" stroke="#4e342e" stroke-width="2.5"/>
<line x1="0" y1="367" x2="1100" y2="367" stroke="#4e342e" stroke-width="2.5"/>
<line x1="0" y1="467" x2="1100" y2="467" stroke="#37474f" stroke-width="3"/>
<line x1="0" y1="512" x2="1100" y2="512" stroke="#37474f" stroke-width="3"/>
<line x1="0" y1="612" x2="1100" y2="612" stroke="#111" stroke-width="4"/>

<!-- ═══════════════════════════════════════════════════════ -->
<!-- SIZOT QUDUQ (chap) -->
<!-- ═══════════════════════════════════════════════════════ -->
<rect x="198" y="168" width="22" height="168" rx="3" fill="url(#well_g)" filter="url(#shadow)"/>
<rect x="203" y="256" width="12" height="68" fill="#29b6f6" opacity="0.88"/>
<rect x="196" y="180" width="26" height="6" rx="2" fill="#546e7a"/>
<rect x="196" y="200" width="26" height="6" rx="2" fill="#78909c"/>
<rect x="196" y="220" width="26" height="6" rx="2" fill="#546e7a"/>
<rect x="196" y="240" width="26" height="6" rx="2" fill="#78909c"/>
<rect x="196" y="260" width="26" height="6" rx="2" fill="#546e7a"/>
<rect x="196" y="280" width="26" height="6" rx="2" fill="#78909c"/>
<rect x="196" y="300" width="26" height="6" rx="2" fill="#546e7a"/>
<rect x="192" y="160" width="34" height="14" rx="5" fill="#37474f" filter="url(#shadow)"/>
<!-- Chelak -->
<line x1="209" y1="134" x2="209" y2="162" stroke="#9e9e9e" stroke-width="1.5"/>
<rect x="201" y="124" width="16" height="12" rx="3" fill="#9e9e9e"/>
<!-- Sizot suv oqimi -->
<line x1="198" y1="285" x2="168" y2="285" stroke="#29b6f6" stroke-width="2.5" marker-end="url(#arr_r)"/>
<line x1="220" y1="292" x2="250" y2="292" stroke="#29b6f6" stroke-width="2.5"/>
<!-- Belgi -->
<rect x="128" y="342" width="82" height="30" fill="white" opacity="0.88" rx="4" stroke="#1565c0" stroke-width="1"/>
<text x="169" y="361" text-anchor="middle" font-size="11" font-weight="bold" fill="#1565c0" font-family="Arial">Sizot quduq</text>

<!-- ═══════════════════════════════════════════════════════ -->
<!-- BIRINCHI NAPORLI QUDUQ (o'rta) -->
<!-- ═══════════════════════════════════════════════════════ -->
<rect x="548" y="168" width="24" height="364" rx="3" fill="url(#well_g)" filter="url(#shadow)"/>
<rect x="554" y="256" width="12" height="68" fill="#29b6f6" opacity="0.85"/>
<rect x="554" y="367" width="12" height="100" fill="#1976d2" opacity="0.9"/>
<rect x="546" y="182" width="28" height="6" rx="2" fill="#546e7a"/>
<rect x="546" y="204" width="28" height="6" rx="2" fill="#78909c"/>
<rect x="546" y="226" width="28" height="6" rx="2" fill="#546e7a"/>
<rect x="546" y="248" width="28" height="6" rx="2" fill="#78909c"/>
<rect x="546" y="275" width="28" height="6" rx="2" fill="#546e7a"/>
<rect x="546" y="305" width="28" height="6" rx="2" fill="#78909c"/>
<rect x="546" y="340" width="28" height="6" rx="2" fill="#546e7a"/>
<rect x="546" y="390" width="28" height="6" rx="2" fill="#455a64"/>
<rect x="546" y="422" width="28" height="6" rx="2" fill="#455a64"/>
<rect x="546" y="455" width="28" height="6" rx="2" fill="#455a64"/>
<rect x="542" y="160" width="36" height="14" rx="5" fill="#37474f" filter="url(#shadow)"/>
<!-- Napr ko'tarish + kichik fontan -->
<rect x="555" y="118" width="10" height="44" fill="#1976d2" opacity="0.9"/>
<ellipse cx="560" cy="116" rx="12" ry="5" fill="#64b5f6" opacity="0.85"/>
<path d="M560,110 Q542,82 532,58" fill="none" stroke="#4fc3f7" stroke-width="3" stroke-linecap="round"/>
<path d="M560,110 Q578,82 588,58" fill="none" stroke="#4fc3f7" stroke-width="3" stroke-linecap="round"/>
<path d="M560,110 Q552,76 548,48" fill="none" stroke="#29b6f6" stroke-width="2.5" stroke-linecap="round"/>
<path d="M560,110 Q568,76 572,48" fill="none" stroke="#29b6f6" stroke-width="2.5" stroke-linecap="round"/>
<circle cx="532" cy="56" r="6" fill="#4fc3f7" opacity="0.88" filter="url(#glow)"/>
<circle cx="588" cy="56" r="6" fill="#4fc3f7" opacity="0.88" filter="url(#glow)"/>
<circle cx="548" cy="45" r="5" fill="#29b6f6" opacity="0.82"/>
<circle cx="572" cy="45" r="5" fill="#29b6f6" opacity="0.82"/>
<circle cx="560" cy="40" r="4.5" fill="#b3e5fc" opacity="0.85"/>
<!-- Piezometrik sath 1 -->
<line x1="560" y1="118" x2="820" y2="118" stroke="#69f0ae" stroke-width="2" stroke-dasharray="12,6" opacity="0.8"/>
<line x1="560" y1="118" x2="300" y2="118" stroke="#69f0ae" stroke-width="2" stroke-dasharray="12,6" opacity="0.8"/>
<circle cx="560" cy="118" r="5" fill="#69f0ae" filter="url(#glow)"/>
<!-- Naporli suv kirishi 1 -->
<line x1="548" y1="428" x2="515" y2="428" stroke="#90caf9" stroke-width="2.8" marker-end="url(#arr_r)"/>
<line x1="572" y1="434" x2="605" y2="434" stroke="#90caf9" stroke-width="2.8"/>
<!-- Belgi -->
<rect x="478" y="540" width="106" height="30" fill="white" opacity="0.88" rx="4" stroke="#1565c0" stroke-width="1"/>
<text x="531" y="559" text-anchor="middle" font-size="11" font-weight="bold" fill="#1565c0" font-family="Arial">Naporli quduq (1)</text>

<!-- ═══════════════════════════════════════════════════════ -->
<!-- IKKINCHI NAPORLI QUDUQ (artezian, o'ng) -->
<!-- ═══════════════════════════════════════════════════════ -->
<rect x="848" y="168" width="24" height="468" rx="3" fill="url(#well_g)" filter="url(#shadow)"/>
<rect x="854" y="256" width="12" height="68" fill="#29b6f6" opacity="0.82"/>
<rect x="854" y="367" width="12" height="100" fill="#1976d2" opacity="0.88"/>
<rect x="854" y="512" width="12" height="100" fill="#0d47a1" opacity="0.92"/>
<rect x="846" y="184" width="28" height="6" rx="2" fill="#546e7a"/>
<rect x="846" y="208" width="28" height="6" rx="2" fill="#78909c"/>
<rect x="846" y="232" width="28" height="6" rx="2" fill="#546e7a"/>
<rect x="846" y="260" width="28" height="6" rx="2" fill="#78909c"/>
<rect x="846" y="295" width="28" height="6" rx="2" fill="#546e7a"/>
<rect x="846" y="332" width="28" height="6" rx="2" fill="#78909c"/>
<rect x="846" y="390" width="28" height="6" rx="2" fill="#455a64"/>
<rect x="846" y="430" width="28" height="6" rx="2" fill="#455a64"/>
<rect x="846" y="475" width="28" height="6" rx="2" fill="#455a64"/>
<rect x="846" y="535" width="28" height="6" rx="2" fill="#37474f"/>
<rect x="846" y="570" width="28" height="6" rx="2" fill="#37474f"/>
<rect x="842" y="160" width="36" height="14" rx="5" fill="#37474f" filter="url(#shadow)"/>
<!-- Kuchli artezian fontan -->
<rect x="855" y="88" width="10" height="74" fill="#0d47a1" opacity="0.92"/>
<ellipse cx="860" cy="86" rx="14" ry="6" fill="#4fc3f7" opacity="0.9" filter="url(#glow)"/>
<path d="M860,80 Q834,46 818,18" fill="none" stroke="#00e5ff" stroke-width="4" stroke-linecap="round"/>
<path d="M860,80 Q886,46 902,18" fill="none" stroke="#00e5ff" stroke-width="4" stroke-linecap="round"/>
<path d="M860,80 Q845,42 838,12" fill="none" stroke="#4fc3f7" stroke-width="3.2" stroke-linecap="round"/>
<path d="M860,80 Q875,42 882,12" fill="none" stroke="#4fc3f7" stroke-width="3.2" stroke-linecap="round"/>
<path d="M860,80 Q860,40 860,8" fill="none" stroke="#29b6f6" stroke-width="2.8" stroke-linecap="round"/>
<!-- Katta tomchilar -->
<circle cx="818" cy="16" r="8" fill="#00e5ff" opacity="0.9" filter="url(#glow)"/>
<circle cx="902" cy="16" r="8" fill="#00e5ff" opacity="0.9" filter="url(#glow)"/>
<circle cx="838" cy="10" r="7" fill="#4fc3f7" opacity="0.85"/>
<circle cx="882" cy="10" r="7" fill="#4fc3f7" opacity="0.85"/>
<circle cx="860" cy="6" r="6.5" fill="#b3e5fc" opacity="0.88" filter="url(#glow)"/>
<!-- Kichik tomchilar -->
<circle cx="803" cy="28" r="4.5" fill="#4fc3f7" opacity="0.7"/>
<circle cx="917" cy="28" r="4.5" fill="#4fc3f7" opacity="0.7"/>
<circle cx="826" cy="3" r="3.5" fill="#29b6f6" opacity="0.65"/>
<circle cx="894" cy="3" r="3.5" fill="#29b6f6" opacity="0.65"/>
<!-- Quduq atrofi hovuzcha -->
<ellipse cx="860" cy="172" rx="42" ry="10" fill="#29b6f6" opacity="0.4"/>
<!-- Piezometrik sath 2 -->
<line x1="860" y1="86" x2="1095" y2="86" stroke="#f48fb1" stroke-width="2" stroke-dasharray="12,6" opacity="0.8"/>
<line x1="860" y1="86" x2="620" y2="86" stroke="#f48fb1" stroke-width="2" stroke-dasharray="12,6" opacity="0.8"/>
<circle cx="860" cy="86" r="5" fill="#f48fb1" filter="url(#glow)"/>
<!-- Artezian naporli suv kirishi -->
<line x1="848" y1="560" x2="815" y2="560" stroke="#b3e5fc" stroke-width="3.2" marker-end="url(#arr_r2)"/>
<line x1="872" y1="567" x2="905" y2="567" stroke="#b3e5fc" stroke-width="3.2"/>
<!-- Belgi -->
<rect x="778" y="540" width="116" height="30" fill="white" opacity="0.88" rx="4" stroke="#0d47a1" stroke-width="1"/>
<text x="836" y="559" text-anchor="middle" font-size="11" font-weight="bold" fill="#0d47a1" font-family="Arial">Artezian quduq (2)</text>

<!-- ═══════════════════════════════════════════════════════ -->
<!-- BELGILAR QATORI (pastda) -->
<!-- ═══════════════════════════════════════════════════════ -->
<rect x="0" y="700" width="1100" height="50" fill="#1a237e" opacity="0.94"/>
<!-- Ranglar -->
<rect x="12" y="712" width="20" height="13" fill="#c8913a" rx="2"/>
<text x="38" y="723" font-size="11" fill="white" font-family="Arial">Vadoz zona</text>
<rect x="148" y="712" width="20" height="13" fill="#1565c0" rx="2"/>
<text x="174" y="723" font-size="11" fill="white" font-family="Arial">Sizot suv (h₁)</text>
<rect x="296" y="712" width="20" height="13" fill="#a1887f" rx="2"/>
<text x="322" y="723" font-size="11" fill="white" font-family="Arial">Sust qatlam 1 (K_b₁)</text>
<rect x="498" y="712" width="20" height="13" fill="#1976d2" rx="2"/>
<text x="524" y="723" font-size="11" fill="white" font-family="Arial">Naporli suv (H₁)</text>
<rect x="674" y="712" width="20" height="13" fill="#8d6e63" rx="2"/>
<text x="700" y="723" font-size="11" fill="white" font-family="Arial">Sust qatlam 2 (K_b₂)</text>
<rect x="876" y="712" width="20" height="13" fill="#0d47a1" rx="2"/>
<text x="902" y="723" font-size="11" fill="white" font-family="Arial">Artezian suv (H₂)</text>
<!-- 2-qator -->
<line x1="12" y1="736" x2="38" y2="736" stroke="#0277bd" stroke-width="3"/>
<text x="44" y="745" font-size="10" fill="#b3e5fc" font-family="Arial">Erkin sirt</text>
<line x1="148" y1="736" x2="178" y2="736" stroke="#69f0ae" stroke-width="2" stroke-dasharray="10,5"/>
<text x="184" y="745" font-size="10" fill="#c8e6c9" font-family="Arial">Piezometrik sath 1</text>
<line x1="376" y1="736" x2="406" y2="736" stroke="#f48fb1" stroke-width="2" stroke-dasharray="10,5"/>
<text x="412" y="745" font-size="10" fill="#f8bbd0" font-family="Arial">Piezometrik sath 2</text>
<line x1="580" y1="734" x2="600" y2="748" stroke="#ff8a65" stroke-width="2" stroke-dasharray="4,3" marker-end="url(#arr_down2)"/>
<text x="606" y="745" font-size="10" fill="#ffccbc" font-family="Arial">Sizib o'tish w(x,t)</text>
<line x1="762" y1="736" x2="802" y2="736" stroke="#b3e5fc" stroke-width="2.5" marker-end="url(#arr_r2)"/>
<text x="808" y="745" font-size="10" fill="#bbdefb" font-family="Arial">Gorizontal filtratsiya oqimi</text>
</svg>
